<svg width="60" height="60" viewBox="0 0 60 60" fill="none" xmlns="http://www.w3.org/2000/svg">
<g clip-path="url(#clip0_1_11)">
<rect width="60" height="60" fill="white"/>
<rect width="60" height="60" fill="#200D0D"/>
<g clip-path="url(#clip1_1_11)">
<path d="M25.1317 20.2433L18.2847 21.6987C17.7659 21.809 17.3121 22.1209 17.0232 22.5657C16.7343 23.0106 16.634 23.552 16.7442 24.0708L20.0708 39.7212C20.1811 40.24 20.493 40.6938 20.9378 40.9827C21.3827 41.2716 21.9241 41.3719 22.4429 41.2617L34.1807 38.7667C34.6996 38.6564 35.1533 38.3446 35.4422 37.8997C35.7311 37.4548 35.8315 36.9134 35.7212 36.3946L33.4342 25.635L25.1317 20.2433Z" stroke="url(#paint0_linear_1_11)" stroke-width="2" stroke-linecap="round" stroke-linejoin="round"/>
<path d="M25.1317 20.2433L26.5871 27.0904L33.4342 25.635" stroke="url(#paint1_linear_1_11)" stroke-width="2" stroke-linecap="round" stroke-linejoin="round"/>
</g>
<path d="M37.2327 21.2327H29.2327C28.7023 21.2327 28.1936 21.4434 27.8185 21.8185C27.4434 22.1936 27.2327 22.7023 27.2327 23.2327V39.2327C27.2327 39.7631 27.4434 40.2719 27.8185 40.6469C28.1936 41.022 28.7023 41.2327 29.2327 41.2327H41.2327C41.7632 41.2327 42.2719 41.022 42.6469 40.6469C43.022 40.2719 43.2327 39.7631 43.2327 39.2327V27.2327L37.2327 21.2327Z" stroke="#41D272" stroke-width="2" stroke-linecap="round" stroke-linejoin="round"/>
<path d="M37.2327 21.2327V27.2327H43.2327" stroke="#41D272" stroke-width="2" stroke-linecap="round" stroke-linejoin="round"/>
<path d="M35.2327 37.2327V31.2327" stroke="white" stroke-width="2" stroke-linecap="round" stroke-linejoin="round"/>
<path d="M32.2327 34.2327H38.2327" stroke="white" stroke-width="2" stroke-linecap="round" stroke-linejoin="round"/>
</g>
<defs>
<linearGradient id="paint0_linear_1_11" x1="16.2327" y1="21.2327" x2="29.2327" y2="39.2327" gradientUnits="userSpaceOnUse">
<stop stop-color="white"/>
<stop offset="1" stop-color="white" stop-opacity="0"/>
</linearGradient>
<linearGradient id="paint1_linear_1_11" x1="16.2327" y1="21.2327" x2="29.2327" y2="39.2327" gradientUnits="userSpaceOnUse">
<stop stop-color="white"/>
<stop offset="1" stop-color="white" stop-opacity="0"/>
</linearGradient>
<clipPath id="clip0_1_11">
<rect width="60" height="60" fill="white"/>
</clipPath>
<clipPath id="clip1_1_11">
<rect width="24" height="24" fill="white" transform="translate(12 20.9899) rotate(-12)"/>
</clipPath>
</defs>
</svg>
